<svg data-logo="logo" xmlns="http://www.w3.org/2000/svg" viewBox="0 0 209 42">
        <g style="opacity: 1;" id="logogram" transform="translate(0, 1) rotate(0)"><path d="M10 15.1533L56.0254 27.3643C57.7788 27.8295 59 29.4164 59 31.2305V40H49V35.8457L29.501 30.6729L10 35.8457V40H0V31.2305C4.53996e-06 29.4164 1.22118 27.8295 2.97461 27.3643L10.001 25.499L2.97461 23.6357C1.22116 23.1706 3.02567e-05 21.5836 0 19.7695V14C0 11.7909 1.79086 10 4 10H10V15.1533Z" fill="#0BDC85"></path><path d="M55 10C57.2091 10 59 11.7909 59 14V20H49V10H55Z" fill="#0BDC85"></path><path d="M45 0C47.2091 0 49 1.79086 49 4V10H10V4C10 1.79086 11.7909 2.81866e-08 14 0H45Z" fill="#0BDC85"></path></g>
        <g style="opacity: 1;" id="logotype" transform="translate(65, 1.5)"><path fill="#050505" d="M12.58 32L7.93 32L7.93 7.25L12.58 7.25L12.58 15.06Q13.18 14.85 14.00 14.62Q14.82 14.39 15.71 14.22Q16.61 14.04 17.34 14.04L17.34 14.04Q19.20 14.04 20.40 14.52Q21.61 14.99 22.31 16.02Q23.01 17.05 23.31 18.73Q23.61 20.41 23.61 22.80L23.61 22.80L23.61 32L18.91 32L18.91 23.14Q18.91 21.32 18.71 20.22Q18.50 19.12 17.92 18.63Q17.34 18.14 16.15 18.14L16.15 18.14Q15.52 18.14 14.86 18.24Q14.19 18.35 13.58 18.52Q12.96 18.70 12.58 18.84L12.58 18.84L12.58 32ZM34.39 32.38L34.39 32.38Q31.48 32.38 29.78 31.41Q28.09 30.43 27.35 28.43Q26.62 26.43 26.62 23.42L26.62 23.42Q26.62 20.17 27.54 18.10Q28.47 16.04 30.26 15.04Q32.04 14.04 34.66 14.04L34.66 14.04Q38.55 14.04 40.53 16.00Q42.51 17.96 42.51 22.20L42.51 22.20L42.30 24.79L31.30 24.79Q31.34 26.75 32.11 27.73Q32.88 28.71 34.77 28.71L34.77 28.71Q35.86 28.71 37.15 28.66Q38.45 28.61 39.72 28.54Q41 28.46 41.91 28.39L41.91 28.39L42.02 31.65Q41.14 31.79 39.81 31.96Q38.48 32.14 37.06 32.26Q35.65 32.38 34.39 32.38ZM31.30 21.81L31.30 21.81L37.85 21.81Q37.85 19.43 37.10 18.49Q36.34 17.54 34.66 17.54L34.66 17.54Q33.55 17.54 32.81 17.96Q32.08 18.38 31.69 19.33Q31.30 20.27 31.30 21.81ZM50.38 32L45.73 32L45.73 7.25L50.38 7.25L50.38 32ZM59.03 39.38L54.37 39.38L54.37 14.43L58.99 14.43L59.03 15.55Q59.52 15.23 60.27 14.88Q61.02 14.53 61.90 14.29Q62.77 14.04 63.61 14.04L63.61 14.04Q65.96 14.04 67.41 15.04Q68.86 16.04 69.54 18.05Q70.23 20.06 70.23 23.14L70.23 23.14Q70.23 26.43 69.46 28.46Q68.69 30.50 66.99 31.44Q65.29 32.38 62.53 32.38L62.53 32.38Q61.65 32.38 60.64 32.24Q59.62 32.10 59.03 31.96L59.03 31.96L59.03 39.38ZM61.79 28.50L61.79 28.50Q63.19 28.50 64.00 27.91Q64.80 27.31 65.13 26.10Q65.47 24.89 65.47 23.04L65.47 23.04Q65.47 20.17 64.68 19.07Q63.89 17.96 62.42 17.96L62.42 17.96Q61.86 17.96 61.23 18.10Q60.60 18.24 60.01 18.45Q59.41 18.66 59.03 18.88L59.03 18.88L59.03 28.25Q59.45 28.29 60.23 28.39Q61.02 28.50 61.79 28.50ZM79.33 32.38L79.33 32.38Q78.07 32.38 77.02 32.09Q75.97 31.79 75.18 31.14Q74.39 30.50 73.85 29.45Q73.31 28.39 73.03 26.87Q72.75 25.35 72.75 23.32L72.75 23.32Q72.75 20.31 73.50 18.24Q74.25 16.18 75.90 15.11Q77.54 14.04 80.27 14.04L80.27 14.04Q80.80 14.04 81.50 14.10Q82.20 14.15 82.86 14.24Q83.53 14.32 83.95 14.39L83.95 14.39L83.95 7.25L88.64 7.25L88.64 32L84.02 32L83.98 30.98Q83.49 31.27 82.70 31.60Q81.92 31.93 81.04 32.16Q80.17 32.38 79.33 32.38ZM80.52 28.46L80.52 28.46Q81.15 28.46 81.79 28.32Q82.44 28.18 83.02 27.99Q83.60 27.80 83.95 27.63L83.95 27.63L83.95 18.21Q83.63 18.14 83.11 18.09Q82.58 18.03 82.02 17.98Q81.46 17.93 81.01 17.93L81.01 17.93Q79.64 17.93 78.89 18.56Q78.14 19.19 77.82 20.40Q77.51 21.60 77.51 23.32L77.51 23.32Q77.51 24.82 77.72 25.82Q77.93 26.82 78.33 27.40Q78.73 27.98 79.29 28.22Q79.85 28.46 80.52 28.46ZM99.59 32.38L99.59 32.38Q96.69 32.38 94.99 31.41Q93.29 30.43 92.56 28.43Q91.82 26.43 91.82 23.42L91.82 23.42Q91.82 20.17 92.75 18.10Q93.68 16.04 95.46 15.04Q97.25 14.04 99.87 14.04L99.87 14.04Q103.76 14.04 105.73 16.00Q107.71 17.96 107.71 22.20L107.71 22.20L107.50 24.79L96.51 24.79Q96.55 26.75 97.32 27.73Q98.09 28.71 99.98 28.71L99.98 28.71Q101.06 28.71 102.36 28.66Q103.65 28.61 104.93 28.54Q106.21 28.46 107.12 28.39L107.12 28.39L107.22 31.65Q106.35 31.79 105.02 31.96Q103.69 32.14 102.27 32.26Q100.85 32.38 99.59 32.38ZM96.51 21.81L96.51 21.81L103.06 21.81Q103.06 19.43 102.30 18.49Q101.55 17.54 99.87 17.54L99.87 17.54Q98.75 17.54 98.02 17.96Q97.28 18.38 96.90 19.33Q96.51 20.27 96.51 21.81ZM117.13 32.38L117.13 32.38Q115.97 32.38 114.66 32.26Q113.35 32.14 112.21 31.96Q111.07 31.79 110.27 31.61L110.27 31.61L110.41 28.15Q111.32 28.25 112.45 28.39Q113.59 28.54 114.69 28.62Q115.80 28.71 116.50 28.71L116.50 28.71Q117.55 28.71 118.23 28.54Q118.91 28.36 119.26 27.96Q119.61 27.55 119.61 26.79L119.61 26.79Q119.61 26.19 119.31 25.88Q119.02 25.56 118.19 25.33Q117.37 25.11 115.80 24.86L115.80 24.86Q113.84 24.58 112.56 24.05Q111.28 23.53 110.69 22.50Q110.09 21.46 110.09 19.68L110.09 19.68Q110.09 17.51 111.04 16.28Q111.98 15.06 113.56 14.55Q115.13 14.04 116.99 14.04L116.99 14.04Q118.21 14.04 119.51 14.17Q120.80 14.29 121.96 14.46Q123.11 14.64 123.88 14.81L123.88 14.81L123.74 18.35Q122.87 18.21 121.71 18.09Q120.56 17.96 119.42 17.89Q118.28 17.82 117.51 17.82L117.51 17.82Q116.71 17.82 116.08 17.98Q115.45 18.14 115.11 18.49Q114.78 18.84 114.78 19.54L114.78 19.54Q114.78 20.03 115.06 20.34Q115.34 20.66 116.13 20.89Q116.92 21.11 118.42 21.32L118.42 21.32Q120.59 21.64 121.89 22.20Q123.18 22.76 123.76 23.81Q124.34 24.86 124.34 26.64L124.34 26.64Q124.34 28.75 123.50 30.00Q122.66 31.27 121.05 31.82Q119.44 32.38 117.13 32.38ZM132.07 32L127.42 32L127.42 7.25L132.07 7.25L132.07 21.04L134.14 20.98L137.78 14.43L142.64 14.43L138.20 22.69L142.89 32L137.99 32L134.21 25.04L132.07 25.14L132.07 32Z"></path></g>
        
      </svg>